<svg width="22" height="22" viewBox="0 0 22 22" fill="none" xmlns="http://www.w3.org/2000/svg">
<path d="M11 5.58341C10.7127 5.58341 10.4372 5.69755 10.234 5.90072C10.0308 6.10388 9.91669 6.37943 9.91669 6.66675V11.0001C9.91669 11.2874 10.0308 11.5629 10.234 11.7661C10.4372 11.9693 10.7127 12.0834 11 12.0834C11.2873 12.0834 11.5629 11.9693 11.7661 11.7661C11.9692 11.5629 12.0834 11.2874 12.0834 11.0001V6.66675C12.0834 6.37943 11.9692 6.10388 11.7661 5.90072C11.5629 5.69755 11.2873 5.58341 11 5.58341ZM11.9967 14.9217C11.973 14.8527 11.9402 14.7871 11.8992 14.7267L11.7692 14.5642C11.6168 14.4139 11.4234 14.3121 11.2132 14.2716C11.0031 14.2311 10.7856 14.2538 10.5884 14.3367C10.4571 14.3916 10.3362 14.4686 10.2309 14.5642C10.1305 14.6655 10.051 14.7855 9.99711 14.9175C9.94319 15.0495 9.91587 15.1908 9.91669 15.3334C9.9184 15.475 9.94785 15.6148 10.0034 15.7451C10.052 15.8795 10.1296 16.0016 10.2307 16.1027C10.3318 16.2038 10.4539 16.2814 10.5884 16.3301C10.718 16.3874 10.8582 16.417 11 16.417C11.1418 16.417 11.282 16.3874 11.4117 16.3301C11.5461 16.2814 11.6682 16.2038 11.7693 16.1027C11.8704 16.0016 11.948 15.8795 11.9967 15.7451C12.0522 15.6148 12.0816 15.475 12.0834 15.3334C12.0887 15.2613 12.0887 15.1889 12.0834 15.1167C12.0647 15.0477 12.0355 14.9819 11.9967 14.9217V14.9217ZM11 0.166748C8.85739 0.166748 6.76288 0.802112 4.98135 1.99249C3.19981 3.18288 1.81128 4.87481 0.99133 6.85434C0.171381 8.83388 -0.0431552 11.0121 0.374851 13.1136C0.792858 15.215 1.82463 17.1453 3.3397 18.6604C4.85477 20.1755 6.78509 21.2073 8.88655 21.6253C10.988 22.0433 13.1662 21.8287 15.1458 21.0088C17.1253 20.1888 18.8172 18.8003 20.0076 17.0188C21.198 15.2372 21.8334 13.1427 21.8334 11.0001C21.8334 9.57743 21.5531 8.1687 21.0087 6.85434C20.4643 5.53998 19.6663 4.34573 18.6603 3.33976C17.6544 2.33379 16.4601 1.53581 15.1458 0.991387C13.8314 0.446961 12.4227 0.166748 11 0.166748V0.166748ZM11 19.6667C9.28592 19.6667 7.61031 19.1585 6.18508 18.2062C4.75986 17.2538 3.64903 15.9003 2.99307 14.3167C2.33711 12.733 2.16548 10.9905 2.49989 9.3093C2.83429 7.62813 3.65971 6.08388 4.87177 4.87182C6.08382 3.65977 7.62807 2.83435 9.30924 2.49994C10.9904 2.16554 12.733 2.33717 14.3166 2.99313C15.9002 3.64909 17.2538 4.75991 18.2061 6.18514C19.1584 7.61037 19.6667 9.28598 19.6667 11.0001C19.6667 13.2986 18.7536 15.503 17.1283 17.1283C15.503 18.7537 13.2986 19.6667 11 19.6667V19.6667Z" fill="#FDBBFF"/>
</svg>
