<svg width="46" height="51" viewBox="0 0 46 51" fill="none" xmlns="http://www.w3.org/2000/svg">
<path d="M43.0002 16L28.0002 2.85002C26.6252 1.62013 24.8451 0.940186 23.0002 0.940186C21.1554 0.940186 19.3753 1.62013 18.0002 2.85002L3.00024 16C2.20616 16.7102 1.57249 17.5814 1.14142 18.5556C0.710346 19.5298 0.491769 20.5847 0.500237 21.65V43.5C0.500237 45.4891 1.29041 47.3968 2.69694 48.8033C4.10346 50.2098 6.01111 51 8.00024 51H38.0002C39.9894 51 41.897 50.2098 43.3035 48.8033C44.7101 47.3968 45.5002 45.4891 45.5002 43.5V21.625C45.5052 20.5639 45.2849 19.5139 44.8539 18.5442C44.423 17.5746 43.7911 16.7074 43.0002 16V16ZM28.0002 46H18.0002V33.5C18.0002 32.837 18.2636 32.2011 18.7325 31.7323C19.2013 31.2634 19.8372 31 20.5002 31H25.5002C26.1633 31 26.7992 31.2634 27.268 31.7323C27.7368 32.2011 28.0002 32.837 28.0002 33.5V46ZM40.5002 43.5C40.5002 44.1631 40.2368 44.7989 39.768 45.2678C39.2992 45.7366 38.6633 46 38.0002 46H33.0002V33.5C33.0002 31.5109 32.2101 29.6032 30.8035 28.1967C29.397 26.7902 27.4894 26 25.5002 26H20.5002C18.5111 26 16.6035 26.7902 15.1969 28.1967C13.7904 29.6032 13.0002 31.5109 13.0002 33.5V46H8.00024C7.3372 46 6.70131 45.7366 6.23247 45.2678C5.76363 44.7989 5.50024 44.1631 5.50024 43.5V21.625C5.50069 21.2701 5.57672 20.9193 5.72328 20.596C5.86984 20.2727 6.08357 19.9843 6.35024 19.75L21.3502 6.62502C21.8065 6.22422 22.393 6.00318 23.0002 6.00318C23.6075 6.00318 24.194 6.22422 24.6502 6.62502L39.6502 19.75C39.9169 19.9843 40.1306 20.2727 40.2772 20.596C40.4238 20.9193 40.4998 21.2701 40.5002 21.625V43.5Z" fill="#E4E1FF"/>
</svg>
